<svg fill="none" height="64" viewBox="0 0 218 64" width="218" xmlns="http://www.w3.org/2000/svg" xmlns:xlink="http://www.w3.org/1999/xlink"><clipPath id="a"><path d="m0 0h218v64h-218z"/></clipPath><g clip-path="url(#a)" fill="#fff"><path d="m82.6777 33.28v8.6486c0 .0692.0693.2076.2081.2076h1.5259c.0693 0 .2081-.0692.2081-.2076v-3.1827h.6242l1.2485 3.1135c.0694.0692.1387.2076.2081.2076h1.734c.0694 0 .2081-.0692.2081-.2076l-1.3179-3.2518h.0694l.763-.7611c.1387-.1384.1387-.346.1387-.346v-3.2519s0-.2075-.1387-.3459l-.763-.6919c-.1387-.1384-.3468-.1384-.3468-.1384h-4.1616c-.0694 0-.2081.0692-.2081.2076zm1.9421 1.6605h1.3872s.0693 0 .1387.0692l.2081.2076c.0693.0692.0693.0692.0693.0692v1.1762s0 .0692-.0693.0692l-.2081.2075c-.0694.0692-.0694.0692-.0694.0692h-1.3872v-1.8681z"/><path d="m117.15 42.067h1.526c.139 0 .208-.0692.208-.2076v-8.5794c0-.0692-.069-.2076-.208-.2076h-1.526c-.07 0-.208.0692-.208.2076v3.3903h-1.942v-3.3903c0-.0692-.07-.2076-.208-.2076h-1.526c-.139 0-.208.0692-.208.2076v8.6486c0 .0692.069.2076.208.2076h1.526c.069 0 .208-.0692.208-.2076v-3.3902h1.942v3.3902c0 .0692.069.1384.208.1384z"/><path d="m128.525 34.9405c.069 0 .208-.0692.208-.2075v-1.5222c0-.0692-.069-.2076-.208-.2076h-4.717c-.138 0-.208.0692-.208.2076v8.6486c0 .0692.07.2076.208.2076h4.717c.069 0 .208-.0692.208-.2076v-1.5221c0-.0692-.069-.2076-.208-.2076h-2.983v-1.6605h2.289c.139 0 .208-.0692.208-.2076v-1.5222c0-.0691-.069-.2075-.208-.2075h-2.289v-1.6606h2.983z"/><path d="m111.878 24.2854c0 .2076 0 .3459.139.4151.07.0692.139.1384.278.1384h.208c1.803 0 2.705 0 4.508.0692.07 0 .208 0 .347-.0692s.208-.2076.277-.4151c.625-4.4973.902-6.7114 1.526-11.2087 1.457 4.5665 2.151 6.8497 3.607 11.4162 0 .0692.069.1384.139.2768.069.1384.208.2076.416.2076 1.803.0692 2.705.0692 4.508.2075.07 0 .208 0 .347-.0692.139-.0691.208-.2075.278-.4151.416-3.0443.624-4.5665 1.04-7.68h.069c.07-.4151.139-.7611.278-.9686.139-.2076.277-.4152.485-.4844.139-.1383.347-.2075.417-.2075h.208c0-.1384 0-.1384 0-.2768-.07 0-.139 0-.208-.0692-.139-.0692-.347-.1384-.417-.2767-.277-.2768-.346-.7611-.277-1.453.694-5.05082.971-7.61082 1.665-12.73082 0-.207567-.07-.345946-.139-.415135-.07-.069189-.139-.138378-.278-.138378-.069 0-.138 0-.208 0-1.803 0-2.705 0-4.508 0-.069 0-.208.069189-.347.138378s-.208.207568-.277.415135c-.625 4.56649-.902 6.78054-1.526 11.34702-1.387-4.56648-2.15-6.84972-3.538-11.34702 0-.069189-.069-.138378-.138-.276757-.07-.138378-.208-.207567-.417-.207567-1.803 0-2.705 0-4.508 0-.069 0-.208.069189-.347.138378-.138.069189-.208.207568-.277.415135-.694 5.120001-1.041 7.680001-1.804 12.800031-.069.3459-.208.6227-.346.761-.139.2076-.278.346-.417.4152-.138.0692-.346.1384-.624.2076v.2767c.07 0 .139 0 .208.0692.139.0692.278.1384.416.2768.278.2075.347.6227.278 1.0378-.416 2.9751-.624 4.5665-1.041 7.68z"/><path d="m88.1572 24.9081c0 .2076 0 .3459.1387.4151.0694.0692.1387.1384.2774.1384h.2081c1.8034-.0692 2.7051-.1384 4.5084-.2076.0694 0 .2081-.0692.3468-.1383.1388-.0692.2081-.2076.2775-.4844.6242-4.5665.9017-6.8497 1.5259-11.4162 1.3872 4.4973 2.1502 6.7806 3.5374 11.2779 0 .0691.0694.1383.1387.2767.0694.1384.2081.2076.4162.2076 1.8037-.0692 2.7047-.0692 4.5087-.0692.069 0 .208-.0692.347-.1384.138-.0692.208-.2076.277-.4151.416-3.0443.624-4.5665 1.04-7.5416h.07c.069-.4152.138-.7611.277-.9687s.278-.4151.486-.4843c.138-.1384.346-.2076.416-.2076h.208c0-.1384 0-.1384 0-.2767-.069 0-.139 0-.208 0-.139-.0692-.347-.1384-.416-.2768-.278-.2768-.347-.6919-.278-1.3838.694-4.9816 1.041-7.47242 1.734-12.454036 0-.207568-.069-.345946-.138-.415136-.07-.069189-.139-.138378-.278-.138378-.069 0-.139 0-.208 0-1.803 0-2.705 0-4.508 0-.07 0-.208.069189-.347.138378-.139.06919-.208.207568-.278.415136-.624 4.497296-.971 6.780536-1.595 11.277836-1.3872-4.4973-2.0808-6.78054-3.5373-11.277836 0-.06919-.0694-.138379-.1387-.276757-.0694-.138379-.2081-.207568-.4162-.207568-1.8034 0-2.7051 0-4.5084 0-.0694 0-.2081.069189-.3469.138379-.1387.069189-.208.207567-.2774.415135-.6936 5.189187-1.1098 7.818377-1.8034 13.076747-.0693.346-.208.6227-.3468.8303-.1387.2075-.2774.3459-.4161.4151s-.3468.1384-.6243.2076v.2767h.2081c.1387 0 .2775.1384.4162.2768.2774.2076.3468.6227.2774 1.0378-.3468 3.0444-.5549 4.7049-.971 7.9568z"/><path d="m90.7235 50.6465-1.2485-1.1762c-.2774-.2768-.5548-.2076-.5548-.2076h-5.6876s-.2774-.0692-.5549.2076l-1.2485 1.1762c-.2774.2767-.2081.5535-.2081.5535v5.0508s-.0693.2768.2081.5535l1.2485 1.1762c.2775.2768.5549.2076.5549.2076h3.9535c.0694 0 .0694 0 .1388.0692l.3468.3459c.0693.0692.0693.1384.0693.1384v1.5914s0 .0692-.0693.1383l-.3468.346c-.0694.0692-.0694.0692-.1388.0692h-2.7744v-.9687c0-.1383-.1387-.2767-.2774-.2767h-2.5664c-.208 0-.3468.1384-.3468.2767v2.0757.0692s-.0693.2768.2081.5535l1.2485 1.1762c.2775.2768.5549.2076.5549.2076h5.6876s.2774 0 .5548-.2076l1.2485-1.1762c.2775-.2767.2081-.5535.2081-.5535v-5.0508s0-.2768-.2081-.5535l-1.2485-1.1762c-.2774-.2768-.5548-.2076-.5548-.2076h-4.0923l-.2774-.2768c-.0694-.0692-.0694-.1383-.0694-.1383v-1.7298s0-.0692.0694-.1384l.3468-.3459c.0693-.0692.1387-.0692.1387-.0692h2.705v1.0378c0 .1384.1388.2768.2775.2768h2.5663c.2081 0 .3468-.1384.3468-.2768v-2.214s0-.2768-.2081-.5535z"/><path d="m102.931 33.28v1.5221c0 .0692.069.2076.208.2076h1.665v6.9189c0 .0692.069.1384.208.1384h1.526c.069 0 .138-.0692.208-.1384v-6.9189h1.664c.139 0 .209-.0692.209-.2076v-1.5221c0-.0692-.07-.2076-.209-.2076h-5.202c-.208 0-.277.1384-.277.2076z"/><path d="m98.7 33.9719-.763-.6919c-.1387-.1384-.3468-.1384-.3468-.1384h-3.3293s-.2081 0-.3468.1384l-.763.6919c-.1387.1383-.1387.3459-.1387.3459v6.573s0 .2076.1387.3459l.763.6919c.1387.1384.3468.1384.3468.1384h3.3987s.1387 0 .3468-.1384l.7629-.6919c.1387-.1383.1388-.3459.1388-.3459v-6.573c-.0694-.0692-.0694-.2076-.2081-.3459zm-1.8034 1.3146v4.5665s0 .0691-.0694.0691l-.208.2076h-1.526l-.208-.2076c0-.0691-.0694-.0691-.0694-.0691v-4.5665s0-.0692.0694-.0692l.208-.2076c0-.0692.0694-.0692.0694-.0692h1.2485s.0693 0 .0693.0692l.2081.2076c.2775.0692.2081.0692.2081.0692z"/><path d="m104.457 49.5395v14.1837c0 .1384.139.2768.277.2768h2.636c.208 0 .277-.1384.277-.2768v-5.12h1.041l2.15 5.12c.069.1384.208.2768.416.2768h2.913c.139 0 .347-.1384.278-.2768l-2.22-5.3275.07-.0692 1.248-1.1762c.278-.2768.208-.5535.208-.5535v-5.3968s.07-.346-.208-.6227l-1.248-1.1762c-.278-.2768-.555-.2076-.555-.2076h-6.936c-.208.0692-.347.1384-.347.346zm3.26 2.8367h2.289s.069 0 .208.0692l.347.346c.069.0691.069.1383.069.1383v2.0065s0 .0692-.069.1384l-.347.3459c-.07.0692-.139.0692-.139.0692h-2.289v-3.1135z"/><path d="m135.6 25.1849c0 .1383 0 .2767.138.4151.07.0692.139.1384.278.2076h.208c6.104.4151 9.156.6918 15.19 1.3837.069 0 .208 0 .347-.0691.138-.0692.208-.2076.277-.4152.208-1.7989.347-2.6292.555-4.4281 0-.1384 0-.2076 0-.2768 0-.0691-.069-.1383-.139-.2075-.069-.0692-.138-.1384-.208-.1384-.069 0-.138-.0692-.138-.0692-3.954-.3459-5.896-.4843-9.85-.7611-.069 0-.138-.0692-.208-.0692 0 0-.069-.0691-.069-.2075.069-.6919.139-1.0379.208-1.7298 0-.1383.069-.2075.208-.2075h.208c1.804.1384 2.705.1384 4.509.2767.069 0 .208 0 .346-.0692.139-.0691.208-.2075.278-.4151.208-1.7297.347-2.6292.555-4.3589 0-.1384 0-.2768-.139-.4151-.069-.0692-.139-.1384-.208-.2076-.069 0-.139 0-.139 0-1.803-.0692-2.705-.1384-4.508-.2076-.07 0-.139-.0692-.208-.1384 0 0-.07-.0691-.07-.2075.347-2.7676.555-4.15137.902-6.91894 0-.13838.069-.20757.139-.27676.069-.06919.138-.06919.138-.06919 3.954.06919 5.896.13838 9.85.20757.138 0 .277 0 .416-.06919s.208-.20757.277-.41513c.208-1.79892.347-2.69838.555-4.566491 0-.207567-.069-.345946-.139-.484324-.069-.069189-.138-.138378-.277-.138378-.069 0-.139 0-.208 0h-15.19c-.069 0-.208.069189-.347.138378s-.208.207568-.277.415135c-.694 5.18919-.971 7.81838-1.665 12.93842-.069.4151-.208.761-.347 1.0378-.138.2076-.277.4151-.485.4843-.139.1384-.347.2076-.625.2076v.2767c.07 0 .139 0 .209.0692.069.0692.277.1384.416.2768.277.2767.346.7611.277 1.453-.416 3.0443-.624 4.6356-1.04 7.7492z"/><path d="m156.755 63.7924c.277.2768.555.2076.555.2076h5.687s.278 0 .555-.2076l1.249-1.1762c.277-.2767.208-.5535.208-.5535v-10.8627s.069-.2768-.208-.5535l-1.249-1.1762c-.277-.2768-.555-.2076-.555-.2076h-5.618s-.278-.0692-.555.2076l-1.248 1.1762c-.278.2767-.209.5535-.209.5535v10.8627s0 .2768.209.5535zm1.734-10.8627s0-.0692.069-.1384l.347-.3459c.069-.0692.139-.0692.139-.0692h2.15s.069 0 .138.0692l.347.3459c.07.0692.07.1384.07.1384v7.5416c0 .0692 0 .0692-.07.1384l-.277.2768h-2.566l-.278-.2768c-.069-.0692-.069-.1384-.069-.1384z"/><path d="m176.522 49.1935h-2.635c-.139 0-.278.1384-.278.2768v8.441l-.069-.2075-2.913-8.1643c-.07-.2076-.139-.2768-.278-.2768h-3.26c-.208 0-.277.1384-.277.2768v14.1837c0 .1384.139.2768.277.2768h2.636c.139 0 .278-.1384.278-.2768v-7.0573l2.635 7.0573c.07.1384.208.2768.416.2768h3.468c.208 0 .278-.1384.278-.2768v-14.2529c0-.1384-.07-.2768-.278-.2768z"/><path d="m158.142 27.8832c.069.0692.139.0692.277.0692 1.804.2076 2.636.346 4.439.6227.278.0692.486 0 .555-.1384.07-.1383.139-.2767.139-.4151.347-2.9751.555-4.4281.902-7.4724 0-.1384.069-.2076.138-.2768h.139c1.665.1384 2.497.2768 4.162.4152.139 0 .347.0691.416.2075s.139.346.139.5535c-.347 2.906-.486 4.359-.833 7.2649v.1384c0 .0692.07.2075.139.2767.139.1384.278.2768.486.2768 1.734.2767 2.635.4151 4.369.6919h.07c.069 0 .208 0 .346-.0692.139-.0692.209-.2076.278-.4843.208-1.7989.277-2.7676.485-4.5665.07-.5535.139-1.107.209-1.7297.069-.5536.138-1.0379.138-1.5222.07-.4151.139-.9687.208-1.453.07-.7611-.069-1.453-.416-1.9373-.069-.0692-.347-.2767-.347-.3459 0 0 .486-.2768.694-.6227.277-.2768.416-.8303.485-1.5222.417-3.8746.625-5.88107 1.041-9.82485.208-1.79892-.069-3.32108-.902-4.35892-.347-.41514-.763-.830273-1.248-1.03784-.416-.276757-.833-.484325-1.249-.5535138-.416-.1383784-.693-.2075672-.971-.2075672-.277 0-.416-.06919-.416-.06919-4.162 0-6.173 0-10.335 0-.069 0-.208.06919-.347.1383788-.138.06918922-.208.2767572-.277.4843242-.694 5.673518-.971 8.510268-1.665 14.114578-.069.4843-.138.8303-.277 1.107-.139.2768-.347.4152-.486.5536-.138.1383-.346.2075-.624.2075v.2768c.07 0 .139 0 .208.0692.139.0692.347.2075.416.3459.278.346.347.8995.278 1.5914-.416 3.3902-.555 5.0508-.971 8.3719 0 0-.07.0691-.07.1383s0 .2076.07.2768c.069.3459.139.4151.208.4151zm7.075-13.8378c.346-3.0443.555-4.56649.901-7.61082 0-.13838.07-.27676.139-.27676.069-.06918.139-.06918.208-.06918 1.595.06919 2.428.06918 4.023.13837.069 0 .139 0 .208.06919.139.06919.278.13838.347.20757.139.13838.139.34595.139.55351-.278 2.76757-.486 4.08212-.763 6.84972-.07.4151-.208.6227-.416.6919-.278.0692-.417.0692-.417.0692-1.595-.1384-2.427-.2076-4.023-.2768-.069 0-.138-.0692-.208-.0692-.138-.1383-.208-.2075-.138-.2767z"/><path d="m133.658 42.067h1.526c.138 0 .208-.0692.208-.2076v-3.1135h.624l1.248 3.1135c.07.0692.139.2076.208.2076h1.735c.069 0 .208-.0692.208-.2076l-1.318-3.2518h.069l.763-.7611c.139-.1384.139-.346.139-.346v-3.2519s0-.2075-.139-.3459l-.763-.7611c-.139-.1384-.347-.1384-.347-.1384h-4.161c-.07 0-.208.0692-.208.2076v8.6486c0 .1384.138.2076.208.2076zm1.734-7.1265h1.387s.069 0 .139.0692l.208.2076c.069.0692.069.0692.069.0692v1.1762s0 .0692-.069.0692l-.208.2075c-.07.0692-.07.0692-.07.0692h-1.387v-1.8681z"/><path d="m136.848 50.6465-1.248-1.1762c-.208-.2076-.555-.2076-.555-.2076h-5.688s-.277 0-.555.2076l-1.248 1.1762c-.208.2075-.208.5535-.208.5535v10.8627s0 .3459.208.5535l1.248 1.1762c.209.2076.555.2076.555.2076h5.688s.347 0 .555-.2076l1.248-1.1762c.208-.2076.208-.2767.208-.4151v-2.4216c0-.1384-.138-.2768-.277-.2768h-2.636c-.208 0-.277.1384-.277.2768v.6227c0 .0691 0 .1383-.07.1383l-.277.2768h-2.566l-.278-.2768c-.069-.0692-.069-.1383-.069-.1383v-7.5417s0-.0692.069-.1383l.347-.346c.069-.0692.139-.0692.139-.0692h2.15c.069 0 .139 0 .139.0692l.346.346c.07.0691.07.1383.07.1383v.5535c0 .1384.138.2768.277.2768h2.636c.139 0 .277-.1384.277-.2768v-2.214-.0692c.07.0692.07-.2768-.208-.4843z"/><path d="m150.512 49.2627c-.208 0-.277.1384-.277.2768v14.1146c0 .1383.139.2767.277.2767h2.636c.208 0 .277-.1384.277-.2767v-14.0455c0-.1383-.138-.2767-.277-.2767h-2.636z"/><path d="m141.703 64h2.567c.139 0 .277-.1384.277-.2768v-11.347h2.775c.208 0 .346-.1384.346-.2767v-2.4909c0-.1383-.138-.3459-.346-.3459h-8.74c-.208 0-.347.1384-.347.3459v2.4909c0 .1383.139.2767.347.2767h2.775v11.4162c.069.1384.208.2076.346.2076z"/><path d="m148.64 33.9719-.763-.6919c-.139-.1384-.347-.1384-.347-.1384h-3.399s-.208 0-.347.1384l-.763.6919c-.138.1383-.138.3459-.138.3459v3.0443s0 .2076.138.346l.763.6919c.139.1384.347.1384.347.1384h2.358s.07 0 .07.0691l.208.2076c.069.0692.069.0692.069.0692v.9687s0 .0691-.069.0691l-.208.2076-.07.0692h-1.526v-.5535c0-.0692-.069-.2076-.208-.2076h-1.526c-.138 0-.208.0692-.208.2076v1.1762s0 .2076.139.3459l.763.6919c.139.1384.347.1384.347.1384h3.398s.209 0 .347-.1384l.763-.6919c.139-.1383.139-.3459.139-.3459v-3.0443s0-.2076-.139-.346l-.763-.6919c-.138-.1383-.347-.1383-.347-.1383h-2.427l-.208-.2076c-.07-.0692-.07-.0692-.07-.0692v-1.0378s0-.0692.07-.0692l.208-.2076c.069-.0692.069-.0692.069-.0692h1.595v.6227c0 .0692.07.2076.209.2076h1.526c.069 0 .208-.0692.208-.2076v-1.3146s0-.1384-.208-.2767z"/><path d="m55.1416 50.6465-1.2485-1.1762c-.2081-.2076-.5549-.2076-.5549-.2076h-5.6876s-.2774 0-.5548.2076l-1.2485 1.1762c-.2081.2075-.2081.5535-.2081.5535v10.8627s0 .3459.2081.5535l1.2485 1.1762c.208.2076.5548.2076.5548.2076h5.6876s.3468 0 .5549-.2076l1.2485-1.1762c.2081-.2076.2081-.2767.2081-.4151v-2.4216c0-.1384-.1388-.2768-.2775-.2768h-2.6357c-.2081 0-.2774.1384-.2774.2768v.6227c0 .0691 0 .1383-.0694.1383l-.2774.346h-2.5664l-.2774-.2768c-.0694-.0692-.0694-.1384-.0694-.1384v-7.6108s0-.0692.0694-.1383l.3468-.346c.0694-.0692.1387-.0692.1387-.0692h2.1502c.0694 0 .1387 0 .1387.0692l.3468.346c.0694.0691.0694.1383.0694.1383v.5535c0 .1384.1387.2768.2774.2768h2.6357c.1387 0 .2775-.1384.2775-.2768v-2.214-.0692c0 .0692.0693-.2768-.2081-.4843z"/><path d="m66.8635 50.6465-1.2485-1.1762c-.2774-.2768-.5548-.2076-.5548-.2076h-5.6183s-.2774-.0692-.5548.2076l-1.2485 1.1762c-.2775.2767-.2081.5535-.2081.5535v10.8627s0 .2768.2081.5535l1.2485 1.1762c.2774.2768.5548.2076.5548.2076h5.6876s.2775 0 .5549-.2076l1.2485-1.1762c.2774-.2767.2081-.5535.2081-.5535v-10.8627s0-.2768-.2775-.5535zm-2.9825 2.2832v7.5416c0 .0692 0 .0692-.0693.1384l-.2775.2768h-2.5663l-.2775-.2768c-.0693-.0692-.0693-.1384-.0693-.1384v-7.5416s0-.0692.0693-.1384l.3468-.3459c.0694-.0692.1388-.0692.1388-.0692h2.1501s.0694 0 .1388.0692l.3468.3459c.1387.0692.0693.1384.0693.1384z"/><path d="m27.6055 25.4616c-.2081-.2075-.6243-.2075-1.0404-.5535-.4856-.4843-.6936-1.2454-.6936-1.8681-3.0519-3.7362-7.3522-2.8368-9.225-2.2832-.2774.2075-.5549.6227-.6242.8302 3.3986-.7611 5.6875 1.0379 5.8263 1.3146.0693.2768-.2775.9687-.6936 1.5914-.3469.3459-.5549.5535-.4856.6919l-6.936 6.8497c-1.5953-1.5222-2.7744-2.6292-3.0519-2.8368-.83231-.761-2.15016-2.56-2.49696-3.8054-.27744-1.2454-.90169-4.0821-1.94209-4.7048-1.04041-.6227-3.32931-.4844-4.78588.6227.90169.4151 2.6357 1.2454 2.6357 1.2454.13872 1.107 0 1.5913-.20808 2.0756-.13872.4844-1.80337 4.013-1.80337 4.013l.41616.5535c2.42762.5535 4.9246 1.2454 5.965 1.9373.48553.346 1.59532 1.453 2.98252 2.906-.9711.8302-3.46804 3.2519-4.16165 3.8746-.76296.7611-3.39866 3.4594-3.81482 3.8746-.76297.6919-1.80337 1.3146-2.21954 1.7297-.762963.7611 1.45657 3.1135 2.2889 2.2832.3468-.3459 1.31785-1.7989 1.73401-2.214.3468-.4152 3.12122-3.0443 3.88419-3.8054.6936-.6919 2.98251-3.1827 3.88421-4.1514 3.6761 3.8746 8.2539 8.7179 8.7394 9.2714.763.7611 2.0114 1.5221 3.1906.3459.971-.9686.4161-2.1448-.0694-2.6984-.2774-.2767-5.7569-5.4659-9.7798-9.2713l6.7973-6.9189c.2081.0692.4162-.2076.6243-.4152.3468-.2075.7629-.4151 1.3178-.4151.4855 0 .9711.1384 1.3872.6227.4855.5535.3468 1.107.4855 1.2454.1388.1384.763.8303 1.1098 1.107.5549-.0691 2.0115-1.1762 2.0115-2.0064-.1388.0691-1.0404-.8303-1.2485-1.0379zm-22.12602.4843-.20808-.0691-.06936.2767.13872.1384-.06936.0692-.27744-.0692-.06936.2767.20808.2076-.06936.0692h-.27744l-.06936.2768.13872.2075v.1384l-.20808-.0692-.13872.2768.13872.1384v.0691l-.06936.0692-.27745-.2075.83233-2.1449h.20808l.06936.1384.13872.0692zm1.04041 2.906-.41616-.1384v-.0692l-.20809-.1384.13873-.1383h.27744l.13872-.2076-.20808-.2076v-.1383l.27744.0691.13872-.2075-.27744-.2076.06936-.1384.27744.0692.13872-.2767-.20808-.1384.06936-.1384h.20808l.13872-.1384v-.1384l.34681.2076zm16.29971 14.3913c.4162-.4151 1.0404-.3459 1.4566 0 .4161.4152.3468 1.0379 0 1.453-.4162.4151-1.0404.346-1.4566 0-.4162-.4843-.3468-1.107 0-1.453z"/><path d="m42.7954 30.7892c.0694 0 .1387.0692.2775 0 4.0922-.7611 6.173-1.107 10.2653-1.7297.5549-.1384 1.0404-.2768 1.4566-.4844.4161-.1383.8323-.4151 1.3872-.6919.4855-.2767.971-.6919 1.4566-1.1762.4855-.4843.8323-1.107 1.1791-1.7989s.5549-1.5222.6936-2.4216c.8323-6.7806 1.2485-10.1708 2.0114-16.81299.2081-1.66054-.0693-2.97513-.9016-3.94378-.3468-.41514-.763-.761081-1.2485-.968649-.4162-.207568-.8324-.415135-1.2485-.484324-.4162-.069189-.6936-.138379-.9711-.2075678-.2774 0-.4161-.0691892-.4161-.0691892-4.1617 0-6.1731 0-10.3347 0-.0694 0-.2081.0691892-.3468.138378-.1388.138379-.2081.345946-.2775.553514-.6936 6.088648-1.0404 9.132968-1.734 15.360008-.0694.5535-.1387.9686-.3468 1.2454-.1387.2768-.3468.5535-.4855.6919s-.3468.2767-.6243.3459v.346h.2081c.1387 0 .3468.1384.4162.2767.2774.346.3468.8995.2774 1.6606-.4161 3.8054-.6242 5.6735-.971 9.4789 0 0-.0694.0692-.0694.2076 0 .0692 0 .2075.0694.2767.1387.1384.2081.1384.2774.2076zm6.0344-7.5416c.7629-6.7806 1.1097-10.1017 1.8727-16.67463 0-.13838.0694-.27675.1387-.27675.0694-.06919.1387-.06919.2081-.06919 1.5953-.06919 2.4276-.06919 4.0229-.13838h.2081c.1387.06919.2774.13838.3468.20757.1387.13837.1387.27675.1387.55351-.6936 6.08867-1.1097 9.13297-1.8033 15.29077-.0694.4152-.2081.6227-.4162.7611-.2775.1384-.4162.1384-.4162.1384-1.5953.2076-2.4276.2768-4.0229.4843-.0693 0-.1387 0-.2081-.0692 0 0-.0693-.0692-.0693-.2075z"/><path d="m101.891 52.0995v-2.4909c0-.1383-.139-.3459-.347-.3459h-8.7397c-.2081 0-.3468.1384-.3468.3459v2.4909c0 .1383.1387.2767.3468.2767h2.7744v11.4162c0 .1384.1388.2768.2775.2768h2.5663c.1387 0 .2775-.1384.2775-.2768v-11.4162h2.774c.278 0 .417-.1384.417-.2767z"/><path d="m2.01145 27.6757c.48553-1.1071 1.24849-2.6292 1.38721-2.9752v-.0692c-.20808.1384-.41616.2768-.41616.2768l-.13872-.2076-2.635699-1.107-.208081.4151c.0693605.8303.693605 2.56 2.01145 3.6671z"/><path d="m216.89 25.4616c-.208-.2076-.624-.2076-1.04-.5535-.486-.4843-.694-1.2454-.694-1.8681-3.052-3.8054-7.352-2.8368-9.225-2.2833-.277.2076-.555.6227-.624.8303 3.399-.7611 5.688 1.0378 5.826 1.3146.07.2768-.277.9686-.693 1.5914-.347.3459-.555.5535-.486.6918l-6.936 6.8498c-1.595-1.5222-2.774-2.6292-3.052-2.8368-.832-.7611-2.15-2.56-2.497-3.8054-.277-1.2454-.901-4.0822-1.942-4.7049-1.04-.6227-3.329-.4843-4.786.6227.902.4152 2.636 1.2455 2.636 1.2455.139 1.107 0 1.5913-.208 2.0756-.208.4844-1.873 4.013-1.873 4.013l.416.5535c2.428.5535 4.925 1.2454 5.965 1.9373.486.346 1.596 1.453 2.983 2.906-.971.8302-3.468 3.2518-4.162 3.8746-.763.761-3.398 3.4594-3.815 3.8745-.763.6919-1.803 1.3146-2.219 1.7298-.763.7611 1.456 3.1135 2.289 2.2832.347-.3459 1.318-1.7989 1.734-2.214.347-.4152 3.052-3.0444 3.884-3.8054.694-.6919 2.982-3.1827 3.884-4.1514 3.676 3.8746 8.254 8.7178 8.74 9.2714.763.761 2.011 1.5221 3.19.3459.971-.9686.416-2.1449-.069-2.6984-.278-.2767-5.757-5.4659-9.78-9.2713l6.797-6.9189c.208.0691.416-.2076.625-.4152.346-.2075.763-.4151 1.317-.4151.486 0 .971.1384 1.388.6227.485.5535.346 1.107.485 1.2454s.763.8303 1.11 1.107c.555-.0692 2.011-1.1762 2.011-2.0065-.069.0692-.971-.8302-1.179-1.0378zm-22.195.4843-.208-.0692-.07.2768.139.1384-.069.0692-.278-.0692-.069.2767.208.2076-.069.0692h-.278l-.069.2767.208.1384-.069.0692-.208-.0692-.07.2768.139.1384v.0691l-.069.0692-.278-.2075.832-2.1449h.209l.069.1384.139.0692zm1.11 2.906-.417-.1384v-.0692l-.208-.1384.07-.1384.277.0692.139-.2075-.208-.2076.069-.1384.278.0692.138-.2076-.277-.2075.069-.1384.208.0692.139-.2768-.208-.2075.069-.1384h.208l.139-.1384v-.1384l.347.2076zm16.299 14.3913c.417-.4151 1.041-.3459 1.457 0 .416.4152.347 1.0379-.069 1.453-.417.4151-1.041.3459-1.457 0-.347-.4843-.347-1.107.069-1.453z"/><path d="m191.296 27.6757c.486-1.1071 1.249-2.6292 1.387-2.9752v-.0692c-.277.1384-.485.2076-.485.2076l-.139-.2076-2.636-1.107-.208.4152c.139.8994.763 2.6291 2.081 3.7362z"/><path d="m69.3605 49.4703v14.1837c0 .1384.1387.2768.2774.2768h2.6357c.1387 0 .2775-.1384.2775-.2768v-6.9881l2.6357 7.0573c.0693.1384.208.2768.4161.2768h3.468c.2081 0 .2775-.1384.2775-.2768v-14.2529c0-.1384-.1387-.2768-.2775-.2768h-2.6357c-.1387 0-.2774.1384-.2774.2768v8.441l-.0694-.2075-2.9131-8.1643c-.0694-.2076-.1387-.2768-.2774-.2768h-3.26c-.1387-.0692-.2774.0692-.2774.2076z"/><path d="m64.9214 26.9146c0 .2076 0 .3459.1387.4151.0694.0692.1388.1384.2775.1384h.2081c1.8033-.2076 2.705-.2768 4.5084-.4843.0694 0 .2081-.0692.3468-.1384s.2081-.2768.2774-.4843c.3468-2.8368.5549-4.2898.9017-7.1265 0-.1384.0694-.2076.2081-.2768.0694 0 .1387-.0692.2081-.0692 1.8034-.1383 2.705-.2075 4.5084-.2767.0694 0 .1387 0 .2081.0692 0 .0692.0694.0692.0694.2075-.3468 2.7676-.5549 4.2206-.9017 6.9882 0 .2075 0 .3459.1387.4151.0694.0692.1387.1384.2774.1384h.2081c1.8034-.1384 2.7051-.2076 4.5084-.346.0694 0 .2081-.0692.3468-.1384.1388-.0691.2081-.2075.2775-.4843.4161-3.1827.6242-4.774 1.0404-7.9567.0694-.4152.1387-.7611.3468-1.0379.1387-.2075.3468-.4151.4855-.5535s.3468-.2076.6243-.2767c0-.1384 0-.1384 0-.2768-.0694 0-.1388 0-.2081 0-.0694 0-.1387-.0692-.2081-.0692s-.1387-.1384-.2081-.2076c-.2081-.2767-.4161-.761-.2774-1.4529.4161-3.3211.6242-4.98166 1.1097-8.30274.2081-1.52216-.0693-2.76757-.971-3.66703-.3468-.34594-.763-.691887-1.1791-.899455-.4162-.207567-.8324-.345946-1.2485-.484324-.4162-.138378-.6936-.138378-.9711-.2075677-.2774 0-.4161 0-.4855 0-2.1502 0-3.1906 0-5.3407 0-.5549.0691897-1.0404.1383787-1.4566.2075677s-.9017.276757-1.3872.484324c-.4855.207568-.9711.553515-1.4566.968645-.763.34595-1.1791.89946-1.5259 1.52217-.3468.6227-.5549 1.38378-.6936 2.28324-.4162 3.52865-.6243 5.25837-1.1098 8.78707-.0694.4843-.2081.8302-.3468 1.107-.1387.2767-.2774.4843-.4855.6227-.1387.1384-.3468.2076-.6243.2767v.2768h.2081c.0694 0 .2775.1384.4162.2768.2774.2767.3468.761.2774 1.5221-.3468 3.3903-.5549 5.12-1.0404 8.5103zm8.2539-20.5492c0-.13838.0694-.27676.1387-.41514.0694-.13837.2081-.20756.2775-.20756.0693-.06919.2081-.06919.4161-.13838 1.4566 0 2.1502-.06919 3.6068-.06919h.2081c.1387.06919.2774.06919.3468.13838.1387.13838.1387.27675.1387.48432-.3468 2.56-.5549 3.87457-.9017 6.50377 0 .1384-.0694.2076-.1387.2768-.0694 0-.1387.0692-.1387.0692-1.8034.0692-2.7051.1383-4.5085.2075-.0693 0-.1387-.0692-.2081-.0692 0 0-.0693-.0691-.0693-.2075.3468-2.6292.4855-3.94381.8323-6.573z"/><path d="m125.473 62.6162c.278-.2767.208-.5535.208-.5535v-12.5232c0-.1384-.139-.2768-.277-.2768h-2.636c-.208 0-.277.1384-.277.2768v10.9318s0 .0692-.07.1384l-.347.2768h-2.566l-.277-.2768c-.07-.0692-.07-.1384-.07-.1384v-10.9318c0-.1384-.138-.2768-.277-.2768h-2.636c-.139 0-.277.1384-.277.2768v12.5232.0692s0 .2767.208.5535l1.248 1.1762c.278.2768.555.2076.555.2076h5.688s.277 0 .555-.2076z"/><path d="m77.7531 36.8086v-2.56s0-.2075-.1387-.3459l-.763-.6919c-.1387-.1384-.3468-.1384-.3468-.1384h-4.1616c-.1387 0-.2081.0692-.2081.2076v8.6486c0 .0692.0694.2076.2081.2076h4.1616s.2081 0 .3468-.1384l.763-.6919c.1387-.1383.1387-.3459.1387-.3459v-2.4908c0-.0692-.0694-.1384-.1387-.2076l-.4856-.4843.4856-.4843c.1387-.2768.1387-.4844.1387-.4844zm-1.9421 3.1135s0 .0692-.0694.0692l-.208.2076h-1.4566v-1.6605h1.3872s.0694 0 .0694.0692l.208.2075c.0694.0692.0694.0692.0694.0692zm0-3.5286s0 .0692-.0694.0692l-.208.2076h-1.4566v-1.6606h1.3872s.0694 0 .0694.0692l.208.2076c.0694.0692.0694.0692.0694.0692z"/></g></svg>